<svg width="216" height="54" viewBox="0 0 216 54" fill="none" xmlns="http://www.w3.org/2000/svg">
<path d="M26.9434 22.3849C29.5052 19.8331 32.5953 18.5552 36.2137 18.5552C39.832 18.5552 42.9221 19.8331 45.4839 22.3849C48.0457 24.9367 49.3287 28.0147 49.3287 31.6189C49.3287 35.2231 48.0457 38.3011 45.4839 40.8529C42.9221 43.4046 39.832 44.6826 36.2137 44.6826C32.5953 44.6826 29.5052 43.4046 26.9434 40.8529C24.3816 38.3011 23.0986 35.2231 23.0986 31.6189C23.0986 28.0147 24.3774 24.9367 26.9434 22.3849ZM42.4022 25.4546C40.6874 23.7506 38.6245 22.8944 36.2137 22.8944C33.8028 22.8944 31.74 23.7464 30.0251 25.4546C28.3103 27.1627 27.4549 29.2175 27.4549 31.6189C27.4549 34.0203 28.3103 36.0709 30.0251 37.7623C31.7358 39.4538 33.7986 40.3016 36.2137 40.3016C38.6245 40.3016 40.6874 39.4538 42.4022 37.7623C44.1129 36.0709 44.9724 34.0203 44.9724 31.6189C44.9724 29.2175 44.1171 27.1627 42.4022 25.4546Z" fill="white"/>
<path d="M66.3456 18.5552C68.7858 18.5552 71.0373 19.1775 73.1085 20.4178C75.1798 21.6624 76.773 23.3037 77.8967 25.3543H72.4712C70.7732 23.7172 68.7313 22.8986 66.3456 22.8986C63.9347 22.8986 61.8761 23.7506 60.178 25.4587C58.4799 27.1669 57.6288 29.2216 57.6288 31.6231C57.6288 34.0245 58.4799 36.0751 60.178 37.7665C61.8761 39.458 63.9347 40.3058 66.3456 40.3058C67.7711 40.3058 69.1002 39.9925 70.3329 39.3619C71.5656 38.7354 72.5802 37.8751 73.3769 36.7809H78.3914C77.3768 39.128 75.7793 41.0324 73.6033 42.4942C71.423 43.9559 69.0038 44.6868 66.3456 44.6868C62.7272 44.6868 59.6455 43.4088 57.0963 40.857C54.5471 38.3053 53.2725 35.2273 53.2725 31.6231C53.2725 28.0188 54.5471 24.9409 57.0963 22.3891C59.6413 19.829 62.7272 18.5552 66.3456 18.5552Z" fill="white"/>
<path d="M83.2057 11.94C83.6291 11.5182 84.1449 11.3052 84.7486 11.3052C85.3524 11.3052 85.8639 11.5182 86.2916 11.94C86.715 12.3618 86.9289 12.8755 86.9289 13.4769C86.9289 14.0783 86.715 14.5878 86.2916 15.0138C85.8681 15.4356 85.3524 15.6486 84.7486 15.6486C84.1449 15.6486 83.6333 15.4398 83.2057 15.0138C82.7822 14.592 82.5684 14.0783 82.5684 13.4769C82.5684 12.8755 82.778 12.3618 83.2057 11.94ZM82.5684 18.5554H86.9247V44.6828H82.5684V18.5554Z" fill="white"/>
<path d="M94.9424 22.3849C97.5042 19.8331 100.594 18.5552 104.213 18.5552C107.831 18.5552 110.921 19.8331 113.483 22.3849C116.045 24.9367 117.328 28.0147 117.328 31.6189C117.328 32.3038 117.261 33.0263 117.122 33.7906H95.7433C96.238 35.7034 97.2652 37.2654 98.825 38.4807C100.389 39.696 102.183 40.3016 104.213 40.3016C106.762 40.3016 108.888 39.387 110.586 37.5577H115.89C114.791 39.7127 113.198 41.4417 111.101 42.7406C109.005 44.0394 106.707 44.6868 104.213 44.6868C100.594 44.6868 97.5042 43.4088 94.9424 40.857C92.3806 38.3053 91.0977 35.2273 91.0977 31.6231C91.0977 28.0188 92.3806 24.9367 94.9424 22.3849ZM95.7475 29.4472H112.686C112.221 27.5344 111.198 25.9641 109.621 24.7362C108.045 23.5084 106.242 22.8944 104.213 22.8944C102.183 22.8944 100.38 23.5084 98.804 24.7362C97.2317 25.9682 96.2129 27.5386 95.7475 29.4472Z" fill="white"/>
<path d="M123.863 35.9583V23.0199H120.613V18.6765H123.863V11.3052H128.261V18.6765H131.674V23.0199H128.261V35.9625C128.261 37.1653 128.684 38.1927 129.536 39.053C130.387 39.9134 131.414 40.3435 132.621 40.3435H134.018V44.6828H132.621C130.211 44.6828 128.148 43.8308 126.433 42.1227C124.718 40.4187 123.863 38.3639 123.863 35.9583Z" fill="white"/>
<path d="M141.226 22.3849C143.787 19.8331 146.878 18.5552 150.496 18.5552C154.114 18.5552 157.204 19.8331 159.766 22.3849C162.328 24.9367 163.611 28.0147 163.611 31.6189C163.611 32.3038 163.544 33.0263 163.405 33.7906H142.026C142.521 35.7034 143.548 37.2654 145.108 38.4807C146.672 39.696 148.467 40.3016 150.496 40.3016C153.045 40.3016 155.171 39.387 156.869 37.5577H162.173C161.078 39.7127 159.481 41.4417 157.385 42.7406C155.288 44.0394 152.991 44.6868 150.496 44.6868C146.878 44.6868 143.787 43.4088 141.226 40.857C138.664 38.3053 137.381 35.2273 137.381 31.6231C137.381 28.0188 138.664 24.9367 141.226 22.3849ZM142.026 29.4472H158.965C158.5 27.5344 157.477 25.9641 155.9 24.7362C154.324 23.5084 152.521 22.8944 150.492 22.8944C148.462 22.8944 146.66 23.5084 145.083 24.7362C143.515 25.9682 142.492 27.5386 142.026 29.4472Z" fill="white"/>
<path fill-rule="evenodd" clip-rule="evenodd" d="M49.7106 0.258789C51.3836 8.15215 44.2432 12.8923 37.7151 17.1898C40.4991 17.2775 43.1112 18.3175 45.1573 20.0339C51.5471 15.9829 56.8384 11.0673 49.7106 0.258789ZM19.0991 15.2353C23.1829 10.754 30.4154 12.2074 33.7948 17.0938C29.9878 17.8789 26.7132 20.0966 24.5707 23.1537C22.3611 18.9731 13.6065 14.9805 7.56055 14.4585L19.0991 15.2353ZM47.6562 51.9164C44.7841 50.4004 43.1322 48.3957 41.5808 45.063C44.4613 44.0022 46.9266 42.0852 48.6582 39.6253C51.3081 46.3618 54.4149 49.8241 61.5175 53.0315H52.2976C50.6834 53.0273 49.0817 52.6682 47.6562 51.9164ZM54.8384 10.9837C61.0396 20.4182 55.9998 24.486 50.4108 27.9691C49.9957 26.0981 49.1656 24.4233 48.0377 23.0242C52.3311 19.9337 55.9747 16.3211 54.8384 10.9837ZM23.5015 17.3151C24.2436 17.4947 24.8977 16.8474 24.7174 16.1082C24.6336 15.7615 24.3485 15.4775 24.0005 15.394C23.2583 15.2144 22.6043 15.8617 22.7846 16.5968C22.8684 16.9476 23.1535 17.2316 23.5015 17.3151Z" fill="url(#paint0_linear_1575_2981)"/>
<path d="M180.079 18.5552C182.519 18.5552 184.775 19.1775 186.842 20.4178C188.909 21.6624 190.507 23.3037 191.63 25.3543H186.205C184.507 23.7172 182.465 22.8986 180.079 22.8986C177.668 22.8986 175.61 23.7506 173.912 25.4587C172.214 27.1669 171.362 29.2216 171.362 31.6231C171.362 34.0245 172.214 36.0751 173.912 37.7665C175.61 39.458 177.668 40.3058 180.079 40.3058C181.505 40.3058 182.834 39.9925 184.067 39.3619C185.299 38.7354 186.314 37.8751 187.111 36.7809H192.125C191.11 39.128 189.513 41.0324 187.333 42.4942C185.153 43.9559 182.733 44.6868 180.075 44.6868C176.457 44.6868 173.375 43.4088 170.826 40.857C168.277 38.3053 167.002 35.2273 167.002 31.6231C167.002 28.0188 168.277 24.9409 170.826 22.3891C173.379 19.829 176.461 18.5552 180.079 18.5552Z" fill="white"/>
<path d="M195.605 44.6828V11.3052H199.966V20.3972C201.719 19.1693 203.668 18.5554 205.802 18.5554C208.599 18.5554 210.997 19.5535 212.997 21.5457C214.997 23.5378 215.999 25.9267 215.999 28.7123V44.687H211.643V28.7123C211.643 27.1295 211.068 25.7721 209.915 24.6362C208.762 23.5044 207.391 22.9364 205.802 22.9364C204.213 22.9364 202.842 23.5044 201.689 24.6362C200.536 25.768 199.962 27.1295 199.962 28.7123V44.687H195.605V44.6828Z" fill="white"/>
<g clip-path="url(#clip0_1575_2981)">
<path d="M0.34668 37.0219H4.45042C4.45042 38.3331 4.9408 39.4487 5.92157 40.3688C6.92814 41.2889 8.1412 41.7489 9.56073 41.7489C10.9803 41.7489 12.1805 41.2889 13.1612 40.3688C14.1677 39.4487 14.6711 38.3331 14.6711 37.0219C14.6711 36.1479 14.4258 35.4003 13.9355 34.7792C13.4709 34.1351 12.8515 33.6291 12.0772 33.261C11.3029 32.893 10.4512 32.548 9.52202 32.2259C8.59287 31.9039 7.65081 31.5473 6.69585 31.1563C5.7667 30.7422 4.91499 30.2822 4.1407 29.7762C3.36641 29.2471 2.73407 28.534 2.24369 27.6369C1.77911 26.7169 1.54683 25.6472 1.54683 24.4281C1.54683 22.4729 2.32112 20.8052 3.8697 19.425C5.44409 18.0219 7.3411 17.3203 9.56073 17.3203C11.7804 17.3203 13.6645 18.0219 15.2131 19.425C16.7874 20.8052 17.5746 22.4729 17.5746 24.4281H13.4322C13.4322 23.485 13.045 22.6799 12.2707 22.0128C11.5222 21.3227 10.6189 20.9777 9.56073 20.9777C8.47672 20.9777 7.56048 21.3227 6.812 22.0128C6.06351 22.6799 5.68927 23.485 5.68927 24.4281C5.68927 25.4632 6.14094 26.3258 7.04429 27.0158C7.94762 27.6829 9.03163 28.235 10.2963 28.6721C11.5868 29.0861 12.8644 29.5692 14.129 30.1212C15.4195 30.6503 16.5165 31.5013 17.4198 32.6745C18.3231 33.8246 18.7748 35.2738 18.7748 37.0219C18.7748 39.3452 17.8714 41.3349 16.0648 42.9911C14.2839 44.6243 12.1158 45.4408 9.56073 45.4408C7.00557 45.4408 4.82466 44.6243 3.01798 42.9911C1.23711 41.3349 0.34668 39.3452 0.34668 37.0219Z" fill="white"/>
</g>
<defs>
<linearGradient id="paint0_linear_1575_2981" x1="20.0513" y1="4.024" x2="70.0111" y2="74.1346" gradientUnits="userSpaceOnUse">
<stop stop-color="#9448F5"/>
<stop offset="0.980183" stop-color="#0BFFA7"/>
</linearGradient>
<clipPath id="clip0_1575_2981">
<rect width="19.1048" height="29.0459" fill="white" transform="translate(0 16.3955)"/>
</clipPath>
</defs>
</svg>
