<svg width="1218" height="1218" viewBox="0 0 1218 1218" fill="none" xmlns="http://www.w3.org/2000/svg">
<path d="M150.859 601.182L176.015 503.008L121.705 446.772L150.859 601.182Z" fill="#1B5E20"/>
<path d="M230.306 368.338L198.309 368.06L121.704 446.951L176.013 503.187L187.54 433.279L230.306 368.338Z" fill="url(#paint0_linear_1591_2495)"/>
<path d="M475.59 71.5645C463.61 75.1561 452.826 79.7845 445.123 87.006C444.208 124.594 458.662 155.258 472.471 186.199L575.178 148.903L475.538 71.564L475.59 71.5645ZM440.82 65.7199L431.744 74.4435L446.466 85.8884L465.429 72.3232L440.82 65.7199Z" fill="url(#paint1_linear_1591_2495)"/>
<path d="M445.122 87.0059C439.546 80.9345 432.13 76.8665 424.017 75.4286L388.694 207.774L472.522 186.199L445.122 87.0059Z" fill="url(#paint2_linear_1591_2495)"/>
<path d="M439.431 63.2443L423.941 75.428L445.046 87.0052L475.513 71.5638L439.354 63.2436L439.431 63.2443ZM433.69 74.794L442.132 68.1693L461.522 73.4699L444.457 81.0207L433.69 74.794Z" fill="url(#paint3_linear_1591_2495)"/>
<path d="M170.582 514.432L142.223 517.42L164.63 538.632L170.582 514.432V514.432ZM199.629 417.036L207.538 391.981L168.823 385.768L199.552 417.061L199.629 417.036ZM222.896 386.237L231.22 372.476L194.33 362.739L222.896 386.237ZM167.268 408.492L186.098 425.131L190.556 416.675L167.268 408.492ZM181.486 436.614L141.765 439.94L172.669 465.87L181.487 436.511L181.486 436.614ZM166.125 549.526L143.247 550.252L164.407 564.319L166.125 549.526Z" fill="url(#paint4_linear_1591_2495)"/>
<path d="M405.623 824.09C409.275 807.928 417.873 801.099 430.686 801.98L465.487 816.037C479.167 829.346 481.778 844.613 469.701 862.472L405.623 824.09Z" fill="url(#paint5_linear_1591_2495)"/>
<path d="M142.745 661.907L246.685 662.807L235.339 690.938C192.471 717.231 152.921 691.892 110.429 683.569L142.745 661.907Z" fill="url(#paint6_linear_1591_2495)"/>
<path d="M142.795 661.984L173.574 429.436L271.928 323.248C286.935 292.71 305.942 268.213 331.986 254.247C346.223 309.853 384.797 394.619 337.298 452.411L295.1 427.922L263.87 534.564L205.673 539.577L184.509 662.371L142.795 661.984Z" fill="url(#paint7_linear_1591_2495)"/>
<path d="M348.896 234.839C354.256 207.99 375.388 186.77 406.156 169.124C434.056 148.091 466.089 138.257 501.303 137.254C603.925 122.026 708.293 122.93 810.637 139.933L879.77 151.105L691.63 226.798L649.624 215.707L510.542 225.229L482.382 273.411L348.896 234.839Z" fill="url(#paint8_linear_1591_2495)"/>
<path d="M622.906 1191.46L694.31 1177.25L649.244 1217.61L622.906 1191.46Z" fill="#6C5DD3"/>
<path d="M873.492 467.988L886.312 468.099C917.045 501.906 942.586 552.068 941.548 603.898L903.587 614.245C867.958 580.241 859.541 530.536 873.492 467.988Z" fill="#5652E5"/>
<path d="M564.75 951.448C502.814 958.969 469.219 941.818 451.9 910.513C461.005 871.635 489.886 843.887 519.762 816.687L378.079 717.812L411.114 609.928L379.645 536.67L532.714 445.609L594.78 384.556L741.87 427.429L738.413 447.673L554.627 476.338L522.309 676.255L606.064 757.922L626.27 793.409L811.977 747.079L855.913 644.807L903.665 614.092C941.437 640.364 944.022 691.43 932.44 752.767L811.345 820.213L731.324 882.009L672.055 960.641L666.448 1016C627.606 1030.29 586.856 992.597 564.75 951.448Z" fill="url(#paint9_linear_1591_2495)"/>
<path d="M271.928 323.222L315.149 199.696L406.182 169.201L348.922 234.916L339.585 238.274L332.01 254.325L271.928 323.248L271.928 323.222Z" fill="url(#paint10_linear_1591_2495)"/>
<path d="M606.013 757.973L593.007 589.614L692.86 553.216L858.331 614.187L856.091 644.963L642.803 782.209L606.013 757.973Z" fill="#5652E5"/>
<path d="M429.315 1132.25L494.359 1159.76L443.415 1183.01L429.315 1132.25Z" fill="#5652E5"/>
<path d="M184.382 662.345L205.546 539.5L263.718 534.486L226.199 662.707L184.382 662.345Z" fill="url(#paint11_linear_1591_2495)"/>
<path d="M295.048 427.922L312.087 423.297L433.518 370.456L338.334 528.255L263.766 534.692L295.048 427.922Z" fill="url(#paint12_linear_1591_2495)"/>
<path d="M476.045 244.357L494.789 205.743L649.574 215.629L627.918 226.297L608.275 247.299L652.309 255.225L601.061 280.983L505.224 294.781L485.473 337.185L495.398 351.77L461.793 383.276C434.734 413.837 416.873 409.653 400.498 399.606C388.786 336.63 412.749 284.536 476.045 244.357Z" fill="url(#paint13_linear_1591_2495)"/>
<path d="M501.329 137.331L647.624 88.2982L810.664 139.83L501.329 137.331Z" fill="url(#paint14_linear_1591_2495)"/>
<path d="M486.026 679.508L554.58 476.081L738.365 447.416L735.172 466.79L873.622 467.989L903.896 614.171L856.067 644.86L858.282 614.084L692.86 553.267L593.059 589.614L606.09 758.025L486.026 679.508Z" fill="url(#paint15_linear_1591_2495)"/>
<path d="M465.46 816.217L430.71 802.16L413.136 758.817L238.699 747.17L231.727 723.191L254.985 702.195L246.531 662.857L226.148 662.681L263.692 534.486L338.106 528.047L400.474 399.503L461.871 383.174L446.359 397.924L433.051 454.267L532.743 445.379L409.583 546.964L446.176 614.8L398.264 717.294L519.866 816.688L465.46 816.217Z" fill="url(#paint16_linear_1591_2495)"/>
<path d="M334.239 233.736L348.794 234.76L475.992 244.33L400.599 399.554L312.087 423.322L334.239 233.736Z" fill="url(#paint17_linear_1591_2495)"/>
<path d="M441.844 128.115L501.33 137.15L406.182 169.149L441.844 128.115Z" fill="url(#paint18_linear_1591_2495)"/>
<path d="M903.716 614.144L932.079 595.835L886.209 468.124L947.742 468.657L966.128 501.151L1019.5 556.071L1065.98 580.237L1038.97 688.429L926.163 722.559L903.716 614.144Z" fill="url(#paint19_linear_1591_2495)"/>
<path d="M672.03 960.641L723.05 869.337L811.423 820.137C813.303 848.87 804.062 873.786 780.735 893.832L745.416 1016.68L672.03 960.641Z" fill="url(#paint20_linear_1591_2495)"/>
<path d="M494.333 1159.84C507.386 1132.95 525.207 1115.17 560.748 1129.62C594.262 1138.35 616.79 1157.31 622.957 1191.41L586.047 1198.79L494.333 1159.84Z" fill="url(#paint21_linear_1591_2495)"/>
<path d="M390.101 1115.67L282.762 1036.29C300.835 1021.89 320.105 1014.39 342.902 1025.95L387.868 1050.67L407.312 1052.71C439.52 1073.14 441.92 1100.9 429.418 1132.33L390.101 1115.67Z" fill="url(#paint22_linear_1591_2495)"/>
<path d="M729.489 1118.09L771.082 1099.8L821.052 1094.43L820.766 1127.45L763.596 1162.01L772.341 1161.86L694.207 1177.35L729.489 1118.09Z" fill="url(#paint23_linear_1591_2495)"/>
<path d="M1065.25 691.941L1113.55 671.47L1122.82 580.703C1151.03 559.75 1173.3 558.814 1188.59 581.273L1209.91 674.845L1194.03 746.564L1080.8 758.415L1040.19 858.508L1024.95 916.605C998.996 934.678 971.151 946.396 936.157 933.8L1065.25 691.941Z" fill="#6C5DD3"/>
<path d="M342.904 1026L363.775 940.058L363.804 936.645L408.644 898.846L451.954 910.385L564.804 951.32C553.629 1001.29 507.399 1016.03 453.441 1023.03C450.645 1049.93 435.404 1059.96 407.364 1052.74L381.58 1069.37L342.904 1026Z" fill="#6C5DD3"/>
<path d="M363.636 955.891L363.773 940.006L440.223 962.149L414.912 986.207L363.636 955.891Z" fill="url(#paint24_linear_1591_2495)"/>
<path d="M980.931 764.247L981.216 763.84L981.214 764.019L980.956 764.298L980.931 764.247Z" fill="#1A237E"/>
<path d="M429.367 1132.25L407.285 1052.74L453.363 1022.98C507.196 1045.24 547.765 1077.25 560.799 1129.59L494.359 1159.81L429.367 1132.25Z" fill="#1A237E"/>
<path d="M780.681 893.857L811.421 820.163L932.516 752.743L926.213 722.508L1028.95 678.437L1066.21 580.188C1088.09 564.62 1107.23 563.4 1122.93 580.679L1146.88 686.798L1074.17 709.752L936.336 933.751L928.064 947.409L780.681 893.857ZM980.929 764.3L980.926 764.633C980.961 764.424 981.014 764.219 981.085 764.019L980.929 764.3Z" fill="url(#paint25_linear_1591_2495)"/>
<path d="M608.223 247.298L627.866 226.245L673.193 244.756L652.307 255.302L608.223 247.298Z" fill="#32211B"/>
<path d="M998.552 579.653C993.066 546.936 1001.57 526.788 1020 515.886C1090.18 501.558 1148.64 518.412 1206.59 536.622L1188.61 581.299L998.552 579.653Z" fill="url(#paint26_linear_1591_2495)"/>
<path d="M1066.04 745.481L1194.06 746.59L1217.43 768.529L1112.6 778.22L1066.04 745.481Z" fill="url(#paint27_linear_1591_2495)"/>
<path d="M560.749 1129.67L453.363 1023.08L564.726 951.371L658.252 985.389L671.978 960.692L740.098 991.23L780.658 893.857L906.442 939.549L881.533 1017.91L760.771 1118.06L735.878 1129.36L694.438 1177.38L623.008 1191.52L560.749 1129.67Z" fill="url(#paint28_linear_1591_2495)"/>
<path d="M837.943 952.839L906.417 939.497L927.939 947.382L936.261 933.802L1024.97 916.606L1039.45 953.891L837.671 984.376L837.943 952.839Z" fill="#2DDBA7"/>
<path d="M606.012 757.947L642.804 781.978L856.014 644.783L846.681 775.224L609.954 809.102L606.012 757.947Z" fill="#283593"/>
<path d="M735.117 466.841L738.336 447.441L741.818 427.249L746.977 397.063C829.241 372.343 905.36 382.293 982.232 388.142L965.266 399.005C966.464 423.626 961.8 447.067 947.921 468.684L735.117 466.841Z" fill="url(#paint29_linear_1591_2495)"/>
<path d="M246.799 1023.12L179.497 945.314L111.645 806.66L110.555 683.622L238.244 675.104L255.138 702.196L231.879 723.218L221.794 733.063L229.118 760.791C288.387 762.254 347.741 762.87 406.144 775.463L405.723 824.219L469.699 862.524L559.435 863.301L559.116 900.176L423.464 913.372L363.828 936.645L363.8 939.904L363.663 955.737L414.682 986.025L414.444 1013.61L342.749 1025.82L282.584 1036.1L246.799 1023.12Z" fill="url(#paint30_linear_1591_2495)"/>
<path d="M1024.95 916.528L1028.53 858.33L1049.15 901.879C1055.99 920.98 1050.61 937.948 1039.42 953.942L1024.95 916.528Z" fill="url(#paint31_linear_1591_2495)"/>
<path d="M635.75 1102.91L682.717 1053.22L684.274 1071.89L648.636 1113.11L635.75 1102.91Z" fill="#00897B"/>
<path d="M746.006 1132.43L794.179 1127.17L795.489 1141.76L750.349 1149.07L746.006 1132.43Z" fill="#00897B"/>
<path d="M238.116 675.18L246.556 662.832L255.165 702.171L238.116 675.18Z" fill="#3E2723"/>
<path d="M414.759 986.154L440.171 962.174L442.094 994.808L414.519 1013.82L414.759 986.154Z" fill="#3E2723"/>
<path d="M559.282 863.274C553.87 842.697 562.964 828.866 576.732 817.232L593.092 873.37L558.962 900.303L559.282 863.274Z" fill="#3E2723"/>
<path d="M406.016 775.488L413.134 758.766L430.708 802.109L405.543 824.243L406.016 775.488Z" fill="#3E2723"/>
<path d="M221.668 733.035L231.753 723.139L238.725 747.117C241.939 755.024 238.03 759.276 228.991 760.891L221.668 733.035Z" fill="#3E2723"/>
<path d="M469.673 862.523L465.432 816.293L576.782 817.258L559.357 863.454L469.673 862.523Z" fill="#6D4C41"/>
<path d="M485.394 337.184L505.171 294.703L533.686 336.011L495.344 351.821L485.394 337.184Z" fill="url(#paint32_linear_1591_2495)"/>
<path d="M229.016 760.969L238.648 747.246L413.187 758.869L406.093 775.668L229.016 760.969Z" fill="url(#paint33_linear_1591_2495)"/>
<path d="M682.691 1053.25L856.58 1006.71L871.809 1024.63L684.222 1071.97L682.691 1053.25Z" fill="url(#paint34_linear_1591_2495)"/>
<path d="M1028.53 858.356L1066.04 745.43L1112.63 778.066L1049.12 902.007L1028.53 858.356Z" fill="#2DDBA7"/>
<path d="M757.969 1154.32L750.321 1149.12L795.41 1141.81L794.125 1127.3L793.397 1119.6L760.743 1118.13L648.608 1113.13L684.169 1071.89L871.755 1024.76L856.525 1006.92L837.668 984.376L1039.39 953.66L1049.07 901.828L1112.58 777.989L1217.41 768.375L1204.58 798.47L1112.27 1030.43L874.942 1160.31L763.568 1162.09L757.969 1154.32Z" fill="url(#paint35_linear_1591_2495)"/>
<path d="M937.565 509.963L947.845 468.632L965.191 398.953C988.416 432.182 1015.04 461.412 1020.08 515.887L998.577 579.704L937.565 509.963Z" fill="url(#paint36_linear_1591_2495)"/>
<path d="M446.254 397.923C557.535 365.396 667.667 338.249 771.898 338.1L771.691 362.093L747.003 397.115L741.845 427.275L577.131 412.145L532.714 445.558L432.638 454.366L446.254 397.923Z" fill="url(#paint37_linear_1591_2495)"/>
<path d="M1020.03 515.938L965.192 398.979L982.209 388.143L747.004 397.115L771.666 362.067L771.873 338.126L446.281 397.975L461.793 383.199L495.398 351.77L511.839 336.361L505.225 294.73L601.087 280.906L652.334 255.225L673.22 244.756L627.943 226.4L649.599 215.706L673.572 204.032L879.771 151.181L919.271 140.771L1017.68 205.781L1062.9 243.307L1169.05 420.633L1206.51 536.826L1020.03 515.938Z" fill="url(#paint38_linear_1591_2495)"/>
<path d="M980.927 764.608C981.025 764.411 981.105 764.206 981.164 763.994V763.994C981.135 764.271 981.054 764.54 980.926 764.788L980.927 764.608Z" fill="#1A237E"/>
<path d="M980.928 764.633L980.931 764.274L981.19 763.968C981.19 764.211 981.126 764.449 981.005 764.66L980.928 764.633Z" fill="#1A237E"/>
<path d="M1131.74 288.223L1141.21 307.501L1157.91 253.189L1131.74 288.171L1131.74 288.223ZM1029.69 181.12L1051.96 158.935L1059.26 103.643L976.645 168.29L1016.21 168.633L1029.69 181.12Z" fill="#D9D9D9"/>
<path d="M1078.56 359.207L1120.95 361.602L1124.56 361.839L1141.29 307.501L1131.81 288.224C1102.22 306.496 1088.49 331.988 1078.64 359.208L1078.56 359.207ZM1052.03 158.987L1029.76 181.172L1016.36 168.687L976.722 168.343C931.922 183.789 897.694 210.181 874.776 248.194L1031.18 317.274L1036.01 280.362L1038.75 259.522L1052.03 158.987Z" fill="url(#paint39_linear_1591_2495)"/>
<path fill-rule="evenodd" clip-rule="evenodd" d="M1096.58 271.366L1102.73 256.021L1038.78 259.496L1036.04 280.336L1078.59 359.079L1131.76 288.095L1115.3 287.952L1124.42 271.479L1096.58 271.366Z" fill="url(#paint40_linear_1591_2495)"/>
<path fill-rule="evenodd" clip-rule="evenodd" d="M976.725 168.343L989.046 140.093L931.402 170.029L883.289 195.018L874.779 248.169L976.725 168.343Z" fill="url(#paint41_linear_1591_2495)"/>
<path fill-rule="evenodd" clip-rule="evenodd" d="M1131.74 288.222L1115.28 288.08L1124.39 271.606L1096.57 271.365L1102.73 256.021L1157.91 253.189L1131.74 288.222Z" fill="url(#paint42_linear_1591_2495)"/>
<path fill-rule="evenodd" clip-rule="evenodd" d="M989.045 140.092L976.724 168.342L1059.33 103.695L989.045 140.092Z" fill="url(#paint43_linear_1591_2495)"/>
<path d="M929.63 172.966L895.941 172.674L867.549 194.293L761.708 226.352L782.32 244.494L726.382 278.911L807.108 313.588L832.69 299.644L878.359 355.728L928.477 339.174L1033.34 420.279L1053.35 394.969L1109.19 461.432L1143.14 461.726L1143.32 440.068L1111.62 396.398L1143.6 407.992L1119.15 364.59L1076.71 362.144L1034.19 283.401L1029.33 320.211L872.955 251.131L881.543 197.955L929.63 172.966Z" fill="url(#paint44_linear_1591_2495)"/>
<path d="M931.4 170.031L897.685 169.738L869.293 191.357L763.452 223.416L784.064 241.559L728.126 275.975L808.852 310.652L834.434 296.708L880.103 352.792L930.221 336.238L1035.08 417.343L1055.07 392.033L1110.91 458.496L1144.85 458.79L1145.04 437.081L1113.34 393.411L1145.32 405.005L1120.87 361.603L1078.48 359.208L1036.01 280.363L1031.18 317.173L874.776 248.17L883.287 195.02L931.4 170.031Z" fill="url(#paint45_linear_1591_2495)"/>
<path d="M593.141 322.052L558.076 344.433L623.148 344.998L633.591 323.352L697.819 308.87L685.91 277.587L634.976 290.747L593.313 302.19L563.939 321.722L593.141 322.052Z" fill="url(#paint46_linear_1591_2495)"/>
<path d="M592.03 317.217L556.965 339.574L622.037 340.138L632.48 318.492L696.708 304.01L684.773 272.753L633.787 285.912L592.124 297.432L562.75 316.964L592.03 317.217Z" fill="url(#paint47_linear_1591_2495)"/>
<path d="M945.05 287.684L933.558 279.372L921.303 291.07L932.753 298.355L945.05 287.684V287.684ZM1005.37 324.545L1005.43 318.361L994.06 325.165L1000.13 332.403L1005.37 324.545Z" fill="#3E2723"/>
<path d="M937.205 257.95L913.506 270.576L957.507 303.138L967.836 273.921L947.656 280.008L954.275 261.716L937.206 257.821L937.205 257.95ZM1012.26 334.896L1018.95 308.11L1009.18 314.005L1009.29 301.175L1001.6 301.108L1001.6 300.98L989.05 311.521L1012.26 334.896Z" fill="url(#paint48_linear_1591_2495)"/>
<path d="M967.836 274.049L982.211 233.703L937.206 257.924L954.275 261.818L947.656 280.11L967.837 274.023L967.836 274.049ZM1018.82 308.212L1025.83 280.428L1001.42 301.029L1001.42 301.157L1009.11 301.224L1009 314.055L1018.82 308.212Z" fill="#00838F"/>
<path d="M1075.72 397.113L1078.92 391.751L1073 385.9L1070.09 389.827L1075.72 397.138L1075.72 397.113ZM999.12 359.931L1003.21 367.665L1008.02 368.271L1013.07 359.975L1005.44 352.415L999.12 359.931Z" fill="#2F2933"/>
<path d="M1095.17 374.545L1085.35 380.439L1085.46 367.608L1077.62 367.54L1077.62 367.386L1065.09 378.005L1072.92 385.926L1078.84 391.802L1088.32 401.38L1095.09 374.595L1095.17 374.545ZM1046.76 330.78L1047.84 329.866L1058.35 300.085L1035.17 312.536L1046.01 313.58L1045.22 330.767C1045.32 330.853 1045.44 330.907 1045.57 330.924C1045.99 330.93 1046.4 330.882 1046.81 330.781L1046.76 330.78ZM1030.5 328.201L1013.43 324.307L989.726 337.061L1005.41 352.364L1013.04 359.923L1029.8 376.262L1044.06 340.458L1023.8 346.467L1030.5 328.201Z" fill="url(#paint49_linear_1591_2495)"/>
<path d="M1085.35 380.439L1095.17 374.544L1102.1 346.76L1077.7 367.336L1077.7 367.49L1085.54 367.558L1085.43 380.388L1085.35 380.439ZM1013.43 324.204L1030.5 328.099L1023.88 346.39L1044.13 340.381L1047.89 329.764L1046.81 330.678C1046.41 330.779 1045.99 330.828 1045.58 330.821C1045.44 330.805 1045.32 330.75 1045.22 330.664L1046.01 313.477L1035.17 312.434L1013.43 324.204Z" fill="#00838F"/>
<path d="M845.094 214.756L838.58 211.928L835.954 219.014L840.135 224.747L846.188 224.646L845.094 214.756Z" fill="#3E2723"/>
<path d="M844.561 193.194L839.045 190.58L828.105 207.397L838.579 211.877L845.094 214.653L860.064 221.122L861.389 201.27L857.528 199.979L853.148 190.574L844.561 193.194ZM854.962 176.501L857.463 183.862L862.824 180.65L864.795 151.385L848.398 176.496L849.673 180.253L854.962 176.501Z" fill="url(#paint50_linear_1591_2495)"/>
<path d="M857.362 183.862L854.861 176.501L849.444 180.252L848.169 176.494L838.918 190.682L840.864 199.912L850.11 195.167L855.693 204.916L861.262 201.372L862.595 180.648L857.362 183.862Z" fill="url(#paint51_linear_1591_2495)"/>
<path d="M637.574 307.706L635.58 301.145L621.239 307.898L622.85 311.377L629.959 313.62L637.574 307.706Z" fill="#3E2723"/>
<path d="M603.075 279.46L611.895 285.465L619.1 273.697L632.378 277.122L636.163 269.302L622.965 250.711L619.132 258.017L611.22 253.842L607.692 261.511L603.582 259.448L603.075 279.46Z" fill="#00838F"/>
<path d="M603.074 279.46L602.589 303.015L621.189 307.77L635.529 301.016L648.88 287.12L636.213 269.303L632.428 277.123L619.15 273.697L611.945 285.466L603.074 279.46ZM604.448 224.323L603.579 259.576L607.69 261.639L611.217 253.971L619.13 258.145L622.963 250.839L604.448 224.323Z" fill="#006064"/>
<path d="M880.457 323.823L886.237 328.466L889.428 318.229L880.456 323.925L880.457 323.823ZM855.706 300.974L857.519 289.98L852.102 302.585L857.948 308.538L868.534 297.056L855.68 300.973L855.706 300.974ZM776.935 277.477L786.073 285.255L792.593 269.606L776.935 277.477ZM806.344 292.411L809.352 279.605L800.883 286.435L806.344 292.385L806.344 292.411ZM806.27 244.651L811.358 249.238L815 234.308L806.296 244.651L806.27 244.651ZM811.383 249.315L815.378 252.865L820.581 244.211L811.256 249.263L811.383 249.315ZM811.256 249.263L811.254 249.416L811.256 249.263ZM785.02 255.733L789.673 257.365L788.035 248.061L785.02 255.733ZM785.854 233.439L793.362 239.894L793.832 227.067L785.855 233.337L785.854 233.439ZM869.003 272.551L875.053 272.604L869.878 263.192L869.003 272.474L869.003 272.551ZM831.53 270.892L836.156 275.629L841.566 263.717L831.53 270.892ZM854.593 230.93L847.482 237.848L854.492 242.605L854.593 230.93ZM1134.87 435.889L1135.5 428.196L1131.38 432.831L1131.47 422.387L1127.3 431.153L1134.95 435.813L1134.87 435.889ZM1016.74 386.415L1022.53 389.416L1019.75 378.896L1016.74 386.415ZM1114.2 415.257L1105.12 418.72L1111.16 425.676L1114.2 415.257ZM1112.49 379.314L1117.93 384.314L1117.44 372.659L1112.49 379.314ZM951.45 318.612C951.449 318.792 951.447 318.92 951.601 318.973C952.269 319.5 952.986 319.961 953.743 320.351L956.666 323.251L962.153 311.416L951.45 318.612ZM895.831 298.318L898.509 285.1L886.553 291.899L895.856 298.37L895.831 298.318ZM1058.95 341.049L1054.21 346.422L1058.2 350.897L1058.95 341.049Z" fill="url(#paint52_linear_1591_2495)"/>
<path d="M666.692 296.924L667.521 301.884L662.72 299.61L662.207 299.605L665.266 304.611L665.549 304.613L673.842 303.248L673.543 296.393L671.118 300.991L670.762 300.629L667.579 295.135L666.693 296.847L666.692 296.924ZM664.451 283.303L663.734 283.143L659.687 276.769L659.629 283.467L664.451 283.303ZM678.467 290.328L684.716 291.178L679.468 284.28L678.467 290.328ZM601.633 321.612L600.916 327.431L595.82 323.64L599.278 330.009L605.025 329.571L602.384 320.746L601.658 321.612L601.633 321.612ZM618.928 328.973L623.194 324.904L616.028 323.328L616.384 323.613L618.902 328.973L618.928 328.973ZM609.439 308.361L609.796 308.646L610.675 313.786L615.812 312.753L609.516 308.439L609.439 308.361ZM652.832 304.503L648.78 298.642L648.087 304.616L652.832 304.503ZM584.412 332.344L578.995 327.164L578.669 332.294L584.412 332.344ZM584.124 309.245L579.201 303.351L579.15 309.253L584.124 309.245Z" fill="#0097A7"/>
<path d="M975.317 339.965L975.318 339.836L962.79 350.429L986.025 373.727L992.795 346.943L982.974 352.837L983.085 340.006L975.24 339.938L975.317 339.965ZM941.755 312.908L926.37 313.031L933.315 295.666L910.921 296.729L887.221 309.484L931.222 342.046L941.755 312.908Z" fill="url(#paint53_linear_1591_2495)"/>
<path d="M992.871 347.02L999.803 319.236L975.395 339.837L975.394 339.965L983.239 340.033L983.128 352.864L992.949 346.969L992.871 347.02ZM921.576 318.866L941.756 312.907L956.053 272.51L911.049 296.73L928.118 300.625L921.576 318.866Z" fill="#00838F"/>
<path d="M853.431 364.829L845.221 374.33L811.842 379.584L823.875 387.669L815.11 393.059L852.8 393.386L853.733 401.093L866.409 391.066L887.86 389.378L874.444 384.13L888.804 377.992L858.652 374.882L853.431 364.829Z" fill="url(#paint54_linear_1591_2495)"/>
<path d="M891.033 390.561L887.89 389.302L866.44 390.989L853.764 401.016L852.83 393.309L815.141 392.983L811.17 395.515L829.569 396.829L833.247 437.1L850.025 418.229L864.858 431.6L871.345 413.82L888.484 418.563L873.762 401.241L891.033 390.561Z" fill="#00838F"/>
<path d="M9.10645 860.304L14.1481 911.878C80.4583 896.722 141.798 872.181 199.985 841.634L179.32 817.691L9.10645 860.304Z" fill="url(#paint55_linear_1591_2495)"/>
<path d="M14.1497 911.879L37.8084 936.54L196.47 856.95L199.986 841.737L14.1497 911.879Z" fill="#4A148C"/>
<path d="M123.48 923.528L164.369 1001.64L228.981 942.688L201.316 880.139L123.48 923.528ZM146.863 813.842L106.014 864.659L188.689 839.97L201.844 801.23L146.863 813.842Z" fill="url(#paint56_linear_1591_2495)"/>
<path fill-rule="evenodd" clip-rule="evenodd" d="M123.481 923.528L102.721 913.571L131.242 974.922L164.346 1001.54L123.481 923.528Z" fill="url(#paint57_linear_1591_2495)"/>
<path fill-rule="evenodd" clip-rule="evenodd" d="M106.018 864.66L146.867 813.842L121.001 744.969L90.1973 796.362L106.018 864.66Z" fill="url(#paint58_linear_1591_2495)"/>
<path fill-rule="evenodd" clip-rule="evenodd" d="M109.265 838.769L101.126 801.436L118.833 767.047L133.068 808.231L109.265 838.769Z" fill="url(#paint59_linear_1591_2495)"/>
<path d="M102.722 913.57L123.482 923.528L201.37 880.037L181.885 870.912L102.722 913.57Z" fill="url(#paint60_linear_1591_2495)"/>
<path d="M101.125 801.436L109.162 838.768L133.068 808.18L118.833 766.996L101.125 801.436Z" fill="#BCBCBC"/>
<path d="M179.826 759.081L120.974 744.969L146.84 813.841L201.821 801.23L179.826 759.081Z" fill="url(#paint61_linear_1591_2495)"/>
<path d="M332.39 631.343L318.887 653.963L329.83 669.456L332.39 631.343Z" fill="#6C5DD3"/>
<path d="M326.201 597.106L336.257 572.865L316.881 545.135L316.473 592.351L308.688 603.011L301.343 613.212L295.871 620.402L295.691 641.213L297.327 650.645L294.789 745.576L325.11 741.168L327.391 702.694L322.605 689.821L329.832 669.507L318.889 654.014L332.391 631.522L326.201 597.106Z" fill="url(#paint62_linear_1591_2495)"/>
<path d="M316.88 545.135L336.256 572.865L328.02 537.892L299.466 521.887L316.88 545.135Z" fill="#9D9D9D"/>
<path d="M297.301 650.697L295.664 641.264L267.637 665.196L275.274 671.601L297.301 650.697Z" fill="#E0E0E0"/>
<path d="M269.255 587.683L246.727 616.153L246.438 649.512L251.141 654.301L250.624 731.901L269.217 743.431L294.839 745.654L297.378 650.724L275.377 671.551L267.74 665.146L295.767 641.214L295.947 620.403L269.332 587.632L269.255 587.683ZM316.472 592.352L316.88 545.136L299.465 521.888L282.169 541.319L272.271 579.959L290.779 568.596L316.472 592.352Z" fill="url(#paint63_linear_1591_2495)"/>
<path d="M284.632 573.932L274.295 583.209C276.439 589.802 279.954 595.865 284.607 601.001C289.261 606.137 294.948 610.228 301.294 613.007L308.639 602.805C306.776 596.627 303.691 590.887 299.567 585.927C295.442 580.967 290.363 576.887 284.632 573.932Z" fill="url(#paint64_linear_1591_2495)"/>
<path d="M284.632 573.932L290.652 568.595L272.272 579.958L271.908 580.468L246.856 616.179L269.384 587.709L274.397 583.236L284.632 573.932Z" fill="#84B2CD"/>
<path d="M308.612 602.933L316.396 592.273L290.575 568.594L284.554 573.931L308.535 602.932L308.612 602.933ZM274.192 583.208L269.179 587.681L295.871 620.402L301.269 612.955L274.192 583.208Z" fill="#0277BD"/>
<path d="M247.691 730.335L271.271 728.461L278.275 701.319L247.637 709.804L247.691 730.335Z" fill="#D9D9D9"/>
<path d="M240.211 711.588L240.737 727.863L247.69 730.361L247.638 709.625L278.274 701.345L267.309 688.418L242.987 704.914L240.211 711.588Z" fill="white"/>
<path d="M346.184 756.184L346.709 763.683L357.794 759.827L357.838 754.694L346.183 756.313L346.184 756.184ZM354.354 742.5L354.398 737.368L344.911 737.286L345.366 743.987L354.354 742.474L354.354 742.5ZM352.018 716.047L343.676 717.053L344.13 723.831L351.963 722.462L352.02 715.842L352.018 716.047ZM339.413 711.909L337.58 707.427L329.131 711.82L339.413 711.909Z" fill="#673AB7"/>
<path d="M343.651 716.951L343.334 712.046L321.182 711.854L328.021 810.587L367.029 889.813L307.272 932.922L283.524 909.619L255.494 933.859L233.69 890.376L223.581 894.113L246.118 941.733L212.171 971.259L231.649 996.115L236.942 991.85L226.816 976.724L282.167 936.143L303.678 960.068L323.137 948.508L396.319 900.794L348.072 783.918L346.811 763.684L346.286 756.186L345.469 743.887L345.014 737.185L344.207 723.73L343.651 716.951Z" fill="#4F4F4F"/>
<path d="M316.487 863.609L282.818 783.762L201.74 763.043L253.8 886.676L316.487 863.609Z" fill="url(#paint65_linear_1591_2495)"/>
<path d="M253.797 886.932L193.472 927.469L279.743 902.016L316.485 863.609L253.797 886.932Z" fill="url(#paint66_linear_1591_2495)"/>
<path d="M193.473 927.317L253.798 886.779L201.738 763.146L168.307 836.714L193.473 927.317Z" fill="url(#paint67_linear_1591_2495)"/>
<path d="M178.848 836.702L198.974 905.089L242.163 877.234L200.661 790.005L178.848 836.702Z" fill="url(#paint68_linear_1591_2495)"/>
<path d="M206.274 1095.47L199.118 1066.1L149.96 1036.88L165.645 1070.38L206.274 1095.47Z" fill="url(#paint69_linear_1591_2495)"/>
<path d="M263.864 988.8L233.554 974.294L149.963 1036.75L199.12 1066.1C226.066 1045.36 248.162 1018.98 263.864 988.8V988.8Z" fill="#5652E5"/>
<path d="M270.58 1009.59L263.862 988.799L199.092 1065.97L206.273 1095.47L270.58 1009.59Z" fill="url(#paint70_linear_1591_2495)"/>
<path d="M268.269 784.817L282.693 830.724L314.302 816.601L300.119 769.541L268.269 784.817Z" fill="url(#paint71_linear_1591_2495)"/>
<path d="M326.309 818.707L314.301 816.652L282.692 830.723L309.179 827.874L326.309 818.707Z" fill="#4A148C"/>
<path d="M326.309 818.707L314.625 773.259L300.118 769.54L314.301 816.652L326.309 818.707Z" fill="#5652E5"/>
<path d="M1.41612 768.185C1.32759 768.203 1.24613 768.246 1.18178 768.309C1.11744 768.372 1.07303 768.453 1.05407 768.541V768.541C1.03688 768.582 1.02781 768.625 1.02734 768.669C1.02687 768.712 1.035 768.756 1.05131 768.797C1.06763 768.837 1.09178 768.874 1.1224 768.906C1.15301 768.937 1.18949 768.962 1.22975 768.979L21.8874 778.91L8.39822 791.009C7.31904 791.979 6.47865 793.186 5.94277 794.536C5.40689 795.885 5.19002 797.34 5.30908 798.787C5.42815 800.234 5.87995 801.634 6.62915 802.878C7.37836 804.121 8.40469 805.175 9.62795 805.955L34.6435 821.929L31.6783 740.808L25.0333 762.025L1.41612 768.185Z" fill="url(#paint72_linear_1591_2495)"/>
<path d="M74.9115 678.128L66.6064 698.587L64.7319 698.904C63.0475 699.182 61.4355 699.794 59.9906 700.704C58.5457 701.614 57.2969 702.804 56.3175 704.203C55.3381 705.603 54.6478 707.184 54.2872 708.854C53.9266 710.524 53.9029 712.249 54.2175 713.929V713.929C54.7316 716.852 56.2643 719.498 58.5435 721.397C60.8226 723.297 63.7006 724.326 66.6662 724.302L72.7682 724.355L74.9115 678.128Z" fill="url(#paint73_linear_1591_2495)"/>
<path d="M1133.49 192.797L1139.6 177.093L1114.61 172.488L1113.85 135.989L1076.73 146.395L1143.97 220.091L1133.49 192.797Z" fill="url(#paint74_linear_1591_2495)"/>
<path d="M955.403 98.6884L955.003 85.5967L939.137 90.9256L917.35 84.1158L978.918 131.022L973.388 115.217L985.345 93.5071L955.403 98.6884Z" fill="url(#paint75_linear_1591_2495)"/>
<path d="M1100.93 1054.72L1101.75 1060.7L1092.24 1072.42L1129.15 1085.83L1127.98 1045.92L1117.17 1056.6L1100.93 1054.72Z" fill="#AFAFAF"/>
<path d="M1101.75 1060.7L1100.93 1054.71L1117.17 1056.57L1127.98 1045.89L1126.32 988.802L1048.81 1056.65L1092.11 1072.42L1101.75 1060.7Z" fill="url(#paint76_linear_1591_2495)"/>
<path d="M1037.16 1105.49L1017.7 1093.44L1038.95 1170.89L1064.05 1103.03L1046.26 1084.32L1037.16 1105.49Z" fill="#DCDCDC"/>
<path d="M1017.7 1093.44L1010.31 1108.21L996.218 1089.58L989.148 1118.52L973.764 1118.39L973.559 1142.1L1038.95 1170.89L1017.7 1093.44Z" fill="url(#paint77_linear_1591_2495)"/>
<path d="M1010.31 1108.21L1017.7 1093.44L996.921 1017.25L873.325 1098.09L973.56 1142.1L973.765 1118.34L989.149 1118.47L996.219 1089.53L1010.31 1108.21Z" fill="#6C5DD3"/>
<path d="M1099.13 1008.28L996.921 1017.24L1017.7 1093.44L1037.16 1105.49L1046.32 1084.27L1064.1 1102.98L1099.13 1008.28Z" fill="url(#paint78_linear_1591_2495)"/>
<path d="M475.535 27.3976L464.885 19.6065L459.415 35.3675L440.764 48.4481L443.013 69.9988L449.377 48.6767L515.423 28.4617L499.648 23.1925L489.717 0.420374L475.535 27.3976Z" fill="url(#paint79_linear_1591_2495)"/>
<path d="M460.431 51.2363L452.72 53.4534L450.69 71.8105L460.431 51.2363Z" fill="#BBBBBB"/>
<path d="M499.902 53.092L493.205 44.6935L489.16 46.9681L487.309 44.5141L478.437 56.5245L499.902 53.092Z" fill="url(#paint80_linear_1591_2495)"/>
<path d="M523.632 10.3891L521.781 7.93507L513.011 19.9464L534.399 16.5902L527.78 8.11539L523.632 10.3891Z" fill="url(#paint81_linear_1591_2495)"/>
<path d="M858.332 614.163L775.672 583.729L735.39 568.855L693.012 553.218L657.439 566.229L633.286 575.001L593.057 589.614L606.038 757.997L642.805 782.054L856.041 644.862L858.332 614.163Z" fill="url(#paint82_linear_1591_2495)"/>
<path d="M846.658 775.224L856.041 644.811L642.805 782.003L606.038 757.946L609.98 809.152L846.658 775.224Z" fill="url(#paint83_linear_1591_2495)"/>
<path d="M374.327 869.858L371.57 871.349L375.802 883.113L378.892 881.574L374.327 869.858V869.858ZM384.325 878.953L380.25 866.83L377.005 868.521L380.694 880.718L384.325 878.953V878.953ZM370.05 872.131L367.475 873.469L372.506 884.675L374.901 883.464L369.871 872.129L370.05 872.131ZM365.261 874.527L362.015 876.244L368.026 886.869L370.601 885.532L365.261 874.527Z" fill="#C7C7C7"/>
<path d="M248.17 938.877L245.938 933.083L243.974 934.811L246.155 940.579L248.17 938.877ZM249.927 937.301L251.012 936.387L248.495 930.873L247.411 931.736L249.927 937.301ZM251.516 928.461L250.198 929.604L252.717 934.887L253.957 933.82L251.516 928.461Z" fill="#C7C7C7"/>
<path d="M847.285 800.2L834.507 795.264L818.881 781.656L819.558 804.194L833.685 816.198L827.82 845.069L876.725 894.74L887.779 897.403L863.086 844.066L863.544 791.051L847.285 800.2Z" fill="url(#paint84_linear_1591_2495)"/>
<path d="M863.62 791.127L856.464 844.829L887.804 897.556L897.557 899.437L916.093 831.462L907.884 766.618L863.722 791.205L863.62 791.127ZM926.709 724.463L930.916 745.03L949.507 733.104L966.525 736.844L978.533 753.783L998.259 767.71L991.41 738.395L1013.61 700.375L988.198 712.396L973.353 724.2L952.872 720.507L926.709 724.463Z" fill="url(#paint85_linear_1591_2495)"/>
<path d="M1008.21 992.808L1057.39 978.247L1054.26 1042.97L1008.21 992.808Z" fill="url(#paint86_linear_1591_2495)"/>
<path d="M798.163 1075.57L847.874 1064.46L835.168 1122.37L833.512 1130.05L798.163 1075.57Z" fill="url(#paint87_linear_1591_2495)"/>
<path d="M856.423 1113.65L896 1097.34L910.525 1119.64L908.129 1177.3L856.423 1113.65Z" fill="url(#paint88_linear_1591_2495)"/>
<path d="M896.001 1097.34L867.814 1053.77L924.19 1027.98L921.557 1136.85L910.475 1119.66L896.001 1097.36L896.001 1097.34Z" fill="#0BFFB6"/>
<path d="M1119.52 892.249L1114.82 877.427L1137.1 839.125L1198.29 942.307L1119.52 892.249Z" fill="url(#paint89_linear_1591_2495)"/>
<path d="M1071.79 948.834L1097.39 924.778L1111.85 933.962L1127.16 992.735L1071.79 948.834Z" fill="url(#paint90_linear_1591_2495)"/>
<path d="M1097.49 924.779L1062.22 902.455L1106.89 851.721L1114.95 877.454L1119.67 892.251L1138.04 950.485L1111.95 933.989L1097.49 924.804L1097.49 924.779Z" fill="#0BFFB6"/>
<path d="M864.104 845.024L868.874 847.811L870.105 847.822L872.896 842.38L864.899 839.051L864.104 845.024Z" fill="#1A237E"/>
<defs>
<linearGradient id="paint0_linear_1591_2495" x1="170.542" y1="422.824" x2="218.683" y2="463.876" gradientUnits="userSpaceOnUse">
<stop stop-color="#0BFFB6"/>
<stop offset="1" stop-color="#27AD2C"/>
</linearGradient>
<linearGradient id="paint1_linear_1591_2495" x1="454.778" y1="126.763" x2="503.899" y2="170.312" gradientUnits="userSpaceOnUse">
<stop stop-color="#6C5DD3"/>
<stop offset="1" stop-color="#231872"/>
</linearGradient>
<linearGradient id="paint2_linear_1591_2495" x1="441.576" y1="128.477" x2="442.383" y2="35.43" gradientUnits="userSpaceOnUse">
<stop stop-color="#6D84FF"/>
<stop offset="1" stop-color="#1E165B"/>
</linearGradient>
<linearGradient id="paint3_linear_1591_2495" x1="456.852" y1="72.0752" x2="394.334" y2="102.954" gradientUnits="userSpaceOnUse">
<stop stop-color="#6D84FF"/>
<stop offset="1" stop-color="#6C5DD3"/>
</linearGradient>
<linearGradient id="paint4_linear_1591_2495" x1="160.609" y1="430.753" x2="203.261" y2="462.113" gradientUnits="userSpaceOnUse">
<stop stop-color="#0097A7"/>
<stop offset="1" stop-color="#1A237E"/>
</linearGradient>
<linearGradient id="paint5_linear_1591_2495" x1="407.968" y1="793.922" x2="481.348" y2="840" gradientUnits="userSpaceOnUse">
<stop stop-color="#FFA726"/>
<stop offset="1" stop-color="#6D4C41"/>
</linearGradient>
<linearGradient id="paint6_linear_1591_2495" x1="82756.8" y1="-2.27563e+06" x2="89450.7" y2="-2.2755e+06" gradientUnits="userSpaceOnUse">
<stop stop-color="#FFA726"/>
<stop offset="1" stop-color="#6D4C41"/>
</linearGradient>
<linearGradient id="paint7_linear_1591_2495" x1="238.115" y1="458.805" x2="161.854" y2="383.788" gradientUnits="userSpaceOnUse">
<stop stop-color="#5795DE"/>
<stop offset="1" stop-color="#594AC2"/>
</linearGradient>
<linearGradient id="paint8_linear_1591_2495" x1="618.433" y1="206.338" x2="616.061" y2="126.245" gradientUnits="userSpaceOnUse">
<stop stop-color="#6C5DD3"/>
<stop offset="1" stop-color="#4FC3F7"/>
</linearGradient>
<linearGradient id="paint9_linear_1591_2495" x1="496.963" y1="533.501" x2="720.864" y2="837.487" gradientUnits="userSpaceOnUse">
<stop stop-color="#4E41AC"/>
<stop offset="1" stop-color="#1A237E"/>
</linearGradient>
<linearGradient id="paint10_linear_1591_2495" x1="324.168" y1="199.82" x2="343.098" y2="249.837" gradientUnits="userSpaceOnUse">
<stop stop-color="#6154BB"/>
<stop offset="1" stop-color="#004589"/>
</linearGradient>
<linearGradient id="paint11_linear_1591_2495" x1="2.15522e+06" y1="-3.23613e+06" x2="2.1569e+06" y2="-3.23502e+06" gradientUnits="userSpaceOnUse">
<stop stop-color="#6C5DD3"/>
<stop offset="1" stop-color="#004589"/>
</linearGradient>
<linearGradient id="paint12_linear_1591_2495" x1="343.258" y1="426.879" x2="399.04" y2="477.792" gradientUnits="userSpaceOnUse">
<stop stop-color="#5988D7"/>
<stop offset="1" stop-color="#6154BB"/>
</linearGradient>
<linearGradient id="paint13_linear_1591_2495" x1="515.798" y1="297.512" x2="600.814" y2="403.805" gradientUnits="userSpaceOnUse">
<stop stop-color="#6154BB"/>
<stop offset="1" stop-color="#0F1D7D"/>
</linearGradient>
<linearGradient id="paint14_linear_1591_2495" x1="665.412" y1="129.745" x2="666.035" y2="57.7914" gradientUnits="userSpaceOnUse">
<stop stop-color="#6087EA"/>
<stop offset="1" stop-color="#6051C4"/>
</linearGradient>
<linearGradient id="paint15_linear_1591_2495" x1="-3.23885e+07" y1="2.38501e+07" x2="-3.24155e+07" y2="2.38135e+07" gradientUnits="userSpaceOnUse">
<stop stop-color="#3727AA"/>
<stop offset="0.708333" stop-color="#4D6FD8"/>
<stop offset="1" stop-color="#6C5DD3"/>
</linearGradient>
<linearGradient id="paint16_linear_1591_2495" x1="291.485" y1="483.994" x2="450.854" y2="656.189" gradientUnits="userSpaceOnUse">
<stop stop-color="#4E41AC"/>
<stop offset="1" stop-color="#1A237E"/>
</linearGradient>
<linearGradient id="paint17_linear_1591_2495" x1="338.254" y1="295.083" x2="444.762" y2="404.16" gradientUnits="userSpaceOnUse">
<stop stop-color="#6154BB"/>
<stop offset="1" stop-color="#4FC3F7"/>
</linearGradient>
<linearGradient id="paint18_linear_1591_2495" x1="453.417" y1="128.764" x2="486.456" y2="156.584" gradientUnits="userSpaceOnUse">
<stop stop-color="#64B5F6"/>
<stop offset="1" stop-color="#007DE2"/>
</linearGradient>
<linearGradient id="paint19_linear_1591_2495" x1="945.756" y1="618.632" x2="1045.7" y2="704.998" gradientUnits="userSpaceOnUse">
<stop stop-color="#303F9F"/>
<stop offset="1" stop-color="#1A237E"/>
</linearGradient>
<linearGradient id="paint20_linear_1591_2495" x1="735.788" y1="889.91" x2="753.623" y2="995.431" gradientUnits="userSpaceOnUse">
<stop stop-color="#303F9F"/>
<stop offset="1" stop-color="#0C1866"/>
</linearGradient>
<linearGradient id="paint21_linear_1591_2495" x1="559.52" y1="1180.35" x2="581.095" y2="1111.79" gradientUnits="userSpaceOnUse">
<stop stop-color="#303F9F"/>
<stop offset="1" stop-color="#241852"/>
</linearGradient>
<linearGradient id="paint22_linear_1591_2495" x1="-2.02274e+06" y1="-708617" x2="-2.02192e+06" y2="-711016" gradientUnits="userSpaceOnUse">
<stop stop-color="#303F9F"/>
<stop offset="1" stop-color="#241852"/>
</linearGradient>
<linearGradient id="paint23_linear_1591_2495" x1="-1.78624e+06" y1="439347" x2="-1.78683e+06" y2="437061" gradientUnits="userSpaceOnUse">
<stop stop-color="#303F9F"/>
<stop offset="1" stop-color="#241852"/>
</linearGradient>
<linearGradient id="paint24_linear_1591_2495" x1="1.0435e+06" y1="-1.1405e+06" x2="1.04422e+06" y2="-1.1386e+06" gradientUnits="userSpaceOnUse">
<stop stop-color="#FFA726"/>
<stop offset="1" stop-color="#6D4C41"/>
</linearGradient>
<linearGradient id="paint25_linear_1591_2495" x1="963.051" y1="778.959" x2="909.746" y2="700.191" gradientUnits="userSpaceOnUse">
<stop stop-color="#1A237E"/>
<stop offset="1" stop-color="#030943"/>
</linearGradient>
<linearGradient id="paint26_linear_1591_2495" x1="646909" y1="-1.0523e+07" x2="674030" y2="-1.05218e+07" gradientUnits="userSpaceOnUse">
<stop stop-color="#6C5DD3"/>
<stop offset="1" stop-color="#EF5350"/>
</linearGradient>
<linearGradient id="paint27_linear_1591_2495" x1="1197.15" y1="734.733" x2="1069.66" y2="765.913" gradientUnits="userSpaceOnUse">
<stop stop-color="#AED581"/>
<stop offset="1" stop-color="#00897B"/>
</linearGradient>
<linearGradient id="paint28_linear_1591_2495" x1="682.866" y1="1054.52" x2="669.769" y2="894.14" gradientUnits="userSpaceOnUse">
<stop stop-color="#6C5DD3"/>
<stop offset="1" stop-color="#4FC3F7"/>
</linearGradient>
<linearGradient id="paint29_linear_1591_2495" x1="-2.43431e+06" y1="-4.32256e+06" x2="-2.4239e+06" y2="-4.32864e+06" gradientUnits="userSpaceOnUse">
<stop stop-color="#6C5DD3"/>
<stop offset="1" stop-color="#880E4F"/>
</linearGradient>
<linearGradient id="paint30_linear_1591_2495" x1="8.52982e+07" y1="844352" x2="8.52974e+07" y2="934280" gradientUnits="userSpaceOnUse">
<stop stop-color="#0BFFB6"/>
<stop offset="1" stop-color="#880E4F"/>
</linearGradient>
<linearGradient id="paint31_linear_1591_2495" x1="1036.84" y1="883.452" x2="1003.51" y2="981.307" gradientUnits="userSpaceOnUse">
<stop stop-color="#05CA8F"/>
<stop offset="1" stop-color="#185A46"/>
</linearGradient>
<linearGradient id="paint32_linear_1591_2495" x1="516.801" y1="318.775" x2="473.852" y2="312.716" gradientUnits="userSpaceOnUse">
<stop stop-color="#6C5DD3"/>
<stop offset="1" stop-color="#9288DB"/>
</linearGradient>
<linearGradient id="paint33_linear_1591_2495" x1="300.819" y1="749.723" x2="174.936" y2="729.779" gradientUnits="userSpaceOnUse">
<stop stop-color="#6D4C41"/>
<stop offset="1" stop-color="#422116"/>
</linearGradient>
<linearGradient id="paint34_linear_1591_2495" x1="814.934" y1="1015.66" x2="898.819" y2="983.668" gradientUnits="userSpaceOnUse">
<stop stop-color="#0BFFB6"/>
<stop offset="1" stop-color="#00897B"/>
</linearGradient>
<linearGradient id="paint35_linear_1591_2495" x1="964.263" y1="1041.2" x2="936.292" y2="958.751" gradientUnits="userSpaceOnUse">
<stop stop-color="#0BFFB6"/>
<stop offset="1" stop-color="#5FA690"/>
</linearGradient>
<linearGradient id="paint36_linear_1591_2495" x1="967.455" y1="468.133" x2="1032.45" y2="514.066" gradientUnits="userSpaceOnUse">
<stop stop-color="#5443CE"/>
<stop offset="1" stop-color="#2D2A9F"/>
</linearGradient>
<linearGradient id="paint37_linear_1591_2495" x1="172162" y1="-9.68067e+06" x2="195554" y2="-9.68046e+06" gradientUnits="userSpaceOnUse">
<stop stop-color="#5443CE"/>
<stop offset="1" stop-color="#2C2882"/>
</linearGradient>
<linearGradient id="paint38_linear_1591_2495" x1="4.71831e+07" y1="-8.58007e+07" x2="4.73234e+07" y2="-8.5724e+07" gradientUnits="userSpaceOnUse">
<stop stop-color="#C8A9F0"/>
<stop offset="1" stop-color="#EF5350"/>
</linearGradient>
<linearGradient id="paint39_linear_1591_2495" x1="981.958" y1="213.319" x2="1029.36" y2="310.832" gradientUnits="userSpaceOnUse">
<stop stop-color="#6C5DD3"/>
<stop offset="1" stop-color="#1A237E"/>
</linearGradient>
<linearGradient id="paint40_linear_1591_2495" x1="5.26409e+06" y1="2.25958e+06" x2="5.26235e+06" y2="2.26377e+06" gradientUnits="userSpaceOnUse">
<stop stop-color="#423FA7"/>
<stop offset="1" stop-color="#1A237E"/>
</linearGradient>
<linearGradient id="paint41_linear_1591_2495" x1="931.514" y1="171.493" x2="749.473" y2="345.989" gradientUnits="userSpaceOnUse">
<stop stop-color="#1A237E"/>
<stop offset="1" stop-color="#0277BD"/>
</linearGradient>
<linearGradient id="paint42_linear_1591_2495" x1="1130.83" y1="230.591" x2="1154.28" y2="313.084" gradientUnits="userSpaceOnUse">
<stop stop-color="white"/>
<stop offset="1" stop-color="#B3B3B3"/>
</linearGradient>
<linearGradient id="paint43_linear_1591_2495" x1="2.46779e+06" y1="-309434" x2="2.46817e+06" y2="-306767" gradientUnits="userSpaceOnUse">
<stop stop-color="white"/>
<stop offset="1" stop-color="#B3B3B3"/>
</linearGradient>
<linearGradient id="paint44_linear_1591_2495" x1="923.284" y1="305.595" x2="945.779" y2="614.15" gradientUnits="userSpaceOnUse">
<stop stop-color="#36A073"/>
<stop offset="1" stop-color="#2D3F58"/>
</linearGradient>
<linearGradient id="paint45_linear_1591_2495" x1="933.665" y1="205.619" x2="931.352" y2="472.363" gradientUnits="userSpaceOnUse">
<stop stop-color="#0BFFB6"/>
<stop offset="1" stop-color="#00897B"/>
</linearGradient>
<linearGradient id="paint46_linear_1591_2495" x1="2.80978e+06" y1="-253854" x2="2.81029e+06" y2="-248896" gradientUnits="userSpaceOnUse">
<stop stop-color="#36A073"/>
<stop offset="1" stop-color="#2D3F58"/>
</linearGradient>
<linearGradient id="paint47_linear_1591_2495" x1="5.15944e+06" y1="89312.9" x2="5.15939e+06" y2="95794.7" gradientUnits="userSpaceOnUse">
<stop stop-color="#0BFFB6"/>
<stop offset="1" stop-color="#00897B"/>
</linearGradient>
<linearGradient id="paint48_linear_1591_2495" x1="975.602" y1="293.217" x2="953.707" y2="322.727" gradientUnits="userSpaceOnUse">
<stop stop-color="#006064"/>
<stop offset="1" stop-color="#241852"/>
</linearGradient>
<linearGradient id="paint49_linear_1591_2495" x1="1.44071e+06" y1="582091" x2="1.44021e+06" y2="583379" gradientUnits="userSpaceOnUse">
<stop stop-color="#006064"/>
<stop offset="1" stop-color="#241852"/>
</linearGradient>
<linearGradient id="paint50_linear_1591_2495" x1="864.882" y1="183.829" x2="852.569" y2="178.033" gradientUnits="userSpaceOnUse">
<stop stop-color="#006064"/>
<stop offset="1" stop-color="#9CCC65"/>
</linearGradient>
<linearGradient id="paint51_linear_1591_2495" x1="854.75" y1="187.283" x2="838.465" y2="177.992" gradientUnits="userSpaceOnUse">
<stop stop-color="#00838F"/>
<stop offset="1" stop-color="#9CCC65"/>
</linearGradient>
<linearGradient id="paint52_linear_1591_2495" x1="825.099" y1="206.608" x2="1066.87" y2="436.585" gradientUnits="userSpaceOnUse">
<stop stop-color="#0097A7"/>
<stop offset="1" stop-color="#9CCC65"/>
</linearGradient>
<linearGradient id="paint53_linear_1591_2495" x1="929.716" y1="344.715" x2="915.887" y2="373.149" gradientUnits="userSpaceOnUse">
<stop stop-color="#006064"/>
<stop offset="1" stop-color="#2D3F58"/>
</linearGradient>
<linearGradient id="paint54_linear_1591_2495" x1="791267" y1="22346" x2="791259" y2="23356.4" gradientUnits="userSpaceOnUse">
<stop stop-color="#0BFFB6"/>
<stop offset="1" stop-color="#00897B"/>
</linearGradient>
<linearGradient id="paint55_linear_1591_2495" x1="45.2215" y1="877.428" x2="179.538" y2="842.411" gradientUnits="userSpaceOnUse">
<stop stop-color="#1976D2"/>
<stop offset="1" stop-color="#4A148C"/>
</linearGradient>
<linearGradient id="paint56_linear_1591_2495" x1="185.9" y1="914.74" x2="120.888" y2="919.02" gradientUnits="userSpaceOnUse">
<stop stop-color="#4A148C"/>
<stop offset="1" stop-color="#0277BD"/>
</linearGradient>
<linearGradient id="paint57_linear_1591_2495" x1="879257" y1="1.63186e+06" x2="878269" y2="1.6324e+06" gradientUnits="userSpaceOnUse">
<stop stop-color="white"/>
<stop offset="1" stop-color="#B3B3B3"/>
</linearGradient>
<linearGradient id="paint58_linear_1591_2495" x1="-1.56029e+06" y1="9.31256e+06" x2="-1.56404e+06" y2="9.31194e+06" gradientUnits="userSpaceOnUse">
<stop stop-color="white"/>
<stop offset="1" stop-color="#B3B3B3"/>
</linearGradient>
<linearGradient id="paint59_linear_1591_2495" x1="713924" y1="1.33219e+06" x2="713418" y2="1.33246e+06" gradientUnits="userSpaceOnUse">
<stop stop-color="white"/>
<stop offset="1" stop-color="#B3B3B3"/>
</linearGradient>
<linearGradient id="paint60_linear_1591_2495" x1="147.85" y1="891.004" x2="203.214" y2="860.969" gradientUnits="userSpaceOnUse">
<stop stop-color="#AB47BC"/>
<stop offset="1" stop-color="#4A148C"/>
</linearGradient>
<linearGradient id="paint61_linear_1591_2495" x1="1.15839e+06" y1="-1.97329e+06" x2="1.1604e+06" y2="-1.97214e+06" gradientUnits="userSpaceOnUse">
<stop stop-color="#1976D2"/>
<stop offset="1" stop-color="#004589"/>
</linearGradient>
<linearGradient id="paint62_linear_1591_2495" x1="315.655" y1="655.717" x2="282.583" y2="657.943" gradientUnits="userSpaceOnUse">
<stop stop-color="#D9D9D9"/>
<stop offset="1" stop-color="#949494"/>
</linearGradient>
<linearGradient id="paint63_linear_1591_2495" x1="304349" y1="5.57893e+06" x2="302881" y2="5.57902e+06" gradientUnits="userSpaceOnUse">
<stop stop-color="white"/>
<stop offset="1" stop-color="#B3B3B3"/>
</linearGradient>
<linearGradient id="paint64_linear_1591_2495" x1="289.215" y1="588.025" x2="270.846" y2="559.985" gradientUnits="userSpaceOnUse">
<stop stop-color="#196491"/>
<stop offset="1" stop-color="#0277BD"/>
</linearGradient>
<linearGradient id="paint65_linear_1591_2495" x1="-1.89571e+06" y1="-1.93982e+06" x2="-1.89417e+06" y2="-1.94134e+06" gradientUnits="userSpaceOnUse">
<stop stop-color="#1976D2"/>
<stop offset="1" stop-color="#004589"/>
</linearGradient>
<linearGradient id="paint66_linear_1591_2495" x1="-15148" y1="1.43611e+06" x2="-17466" y2="1.43609e+06" gradientUnits="userSpaceOnUse">
<stop stop-color="#4A148C"/>
<stop offset="1" stop-color="#0277BD"/>
</linearGradient>
<linearGradient id="paint67_linear_1591_2495" x1="4.8234e+06" y1="6.4855e+06" x2="4.82053e+06" y2="6.48764e+06" gradientUnits="userSpaceOnUse">
<stop stop-color="white"/>
<stop offset="1" stop-color="#B3B3B3"/>
</linearGradient>
<linearGradient id="paint68_linear_1591_2495" x1="200.848" y1="851.52" x2="248.088" y2="836.504" gradientUnits="userSpaceOnUse">
<stop stop-color="#BCBCBC"/>
<stop offset="1" stop-color="#7D7D7D"/>
</linearGradient>
<linearGradient id="paint69_linear_1591_2495" x1="759725" y1="1.3226e+06" x2="758624" y2="1.32324e+06" gradientUnits="userSpaceOnUse">
<stop stop-color="white"/>
<stop offset="1" stop-color="#B3B3B3"/>
</linearGradient>
<linearGradient id="paint70_linear_1591_2495" x1="2.99811e+06" y1="3.616e+06" x2="2.99608e+06" y2="3.61769e+06" gradientUnits="userSpaceOnUse">
<stop stop-color="#4A148C"/>
<stop offset="1" stop-color="#0277BD"/>
</linearGradient>
<linearGradient id="paint71_linear_1591_2495" x1="421504" y1="1.91558e+06" x2="420266" y2="1.91586e+06" gradientUnits="userSpaceOnUse">
<stop stop-color="white"/>
<stop offset="1" stop-color="#B3B3B3"/>
</linearGradient>
<linearGradient id="paint72_linear_1591_2495" x1="19.1548" y1="787.278" x2="56.7751" y2="786.681" gradientUnits="userSpaceOnUse">
<stop stop-color="#DCDCDC"/>
<stop offset="1" stop-color="#979797"/>
</linearGradient>
<linearGradient id="paint73_linear_1591_2495" x1="50064.1" y1="-432343" x2="50230.8" y2="-432326" gradientUnits="userSpaceOnUse">
<stop stop-color="#DCDCDC"/>
<stop offset="1" stop-color="#979797"/>
</linearGradient>
<linearGradient id="paint74_linear_1591_2495" x1="1110.08" y1="185.808" x2="1077.59" y2="218.656" gradientUnits="userSpaceOnUse">
<stop stop-color="#DCDCDC"/>
<stop offset="1" stop-color="#0277BD"/>
</linearGradient>
<linearGradient id="paint75_linear_1591_2495" x1="611376" y1="610102" x2="610610" y2="610901" gradientUnits="userSpaceOnUse">
<stop stop-color="#DCDCDC"/>
<stop offset="1" stop-color="#0277BD"/>
</linearGradient>
<linearGradient id="paint76_linear_1591_2495" x1="1097.05" y1="1036.59" x2="982.62" y2="1122.92" gradientUnits="userSpaceOnUse">
<stop stop-color="#9E96D8"/>
<stop offset="1" stop-color="#004B53"/>
</linearGradient>
<linearGradient id="paint77_linear_1591_2495" x1="3.00104e+06" y1="2.7425e+06" x2="2.99918e+06" y2="2.74459e+06" gradientUnits="userSpaceOnUse">
<stop stop-color="white"/>
<stop offset="1" stop-color="#B3B3B3"/>
</linearGradient>
<linearGradient id="paint78_linear_1591_2495" x1="987.373" y1="1072.78" x2="1151.54" y2="975.289" gradientUnits="userSpaceOnUse">
<stop stop-color="#6C5DD3"/>
<stop offset="1" stop-color="#2D3F58"/>
</linearGradient>
<linearGradient id="paint79_linear_1591_2495" x1="1.12197e+06" y1="-621235" x2="1.12255e+06" y2="-620214" gradientUnits="userSpaceOnUse">
<stop stop-color="#DCDCDC"/>
<stop offset="1" stop-color="#0277BD"/>
</linearGradient>
<linearGradient id="paint80_linear_1591_2495" x1="477.381" y1="42.6127" x2="480.575" y2="53.4686" gradientUnits="userSpaceOnUse">
<stop stop-color="#BBBBBB"/>
<stop offset="1" stop-color="#303F9F"/>
</linearGradient>
<linearGradient id="paint81_linear_1591_2495" x1="525.825" y1="25.9694" x2="529.75" y2="38.3197" gradientUnits="userSpaceOnUse">
<stop stop-color="#BBBBBB"/>
<stop offset="1" stop-color="#0277BD"/>
</linearGradient>
<linearGradient id="paint82_linear_1591_2495" x1="5.1141e+06" y1="-1.43204e+06" x2="5.11572e+06" y2="-1.42778e+06" gradientUnits="userSpaceOnUse">
<stop stop-color="#6C5DD3"/>
<stop offset="1" stop-color="#303F9F"/>
</linearGradient>
<linearGradient id="paint83_linear_1591_2495" x1="745.477" y1="668.67" x2="744.246" y2="810.702" gradientUnits="userSpaceOnUse">
<stop stop-color="#1A237E"/>
<stop offset="1" stop-color="#303F9F"/>
</linearGradient>
<linearGradient id="paint84_linear_1591_2495" x1="865.372" y1="831.22" x2="850.675" y2="891.369" gradientUnits="userSpaceOnUse">
<stop stop-color="#AFAFAF"/>
<stop offset="1" stop-color="#737373"/>
</linearGradient>
<linearGradient id="paint85_linear_1591_2495" x1="-3.04352e+06" y1="3.67242e+06" x2="-3.04595e+06" y2="3.67041e+06" gradientUnits="userSpaceOnUse">
<stop stop-color="white"/>
<stop offset="1" stop-color="#B3B3B3"/>
</linearGradient>
<linearGradient id="paint86_linear_1591_2495" x1="-1.515e+06" y1="-899122" x2="-1.51443e+06" y2="-900118" gradientUnits="userSpaceOnUse">
<stop stop-color="#0BFFB6"/>
<stop offset="1" stop-color="#00897B"/>
</linearGradient>
<linearGradient id="paint87_linear_1591_2495" x1="-1.85204e+06" y1="-1.38612e+06" x2="-1.85117e+06" y2="-1.38733e+06" gradientUnits="userSpaceOnUse">
<stop stop-color="#0BFFB6"/>
<stop offset="1" stop-color="#00897B"/>
</linearGradient>
<linearGradient id="paint88_linear_1591_2495" x1="-1.72893e+06" y1="-1.50189e+06" x2="-1.72808e+06" y2="-1.5029e+06" gradientUnits="userSpaceOnUse">
<stop stop-color="#2FD8A5"/>
<stop offset="1" stop-color="#00897B"/>
</linearGradient>
<linearGradient id="paint89_linear_1591_2495" x1="304019" y1="2.35687e+06" x2="302382" y2="2.3571e+06" gradientUnits="userSpaceOnUse">
<stop stop-color="#0BFFB6"/>
<stop offset="1" stop-color="#00897B"/>
</linearGradient>
<linearGradient id="paint90_linear_1591_2495" x1="-1.76996e+06" y1="-198130" x2="-1.76985e+06" y2="-199383" gradientUnits="userSpaceOnUse">
<stop stop-color="#22AF85"/>
<stop offset="1" stop-color="#00897B"/>
</linearGradient>
</defs>
</svg>
